<?xml version="1.0" encoding="utf-8"?>
<!-- Generator: Adobe Illustrator 23.0.1, SVG Export Plug-In . SVG Version: 6.00 Build 0)  -->
<svg version="1.0" id="Camada_1" xmlns="http://www.w3.org/2000/svg" xmlns:xlink="http://www.w3.org/1999/xlink" x="0px" y="0px"
	 viewBox="0 0 252 225.19" enable-background="new 0 0 252 225.19" xml:space="preserve">
<g>
	<path fill="#E8E6E6" d="M187.81,186.76v22.89H13.83V15.54L29.86,27.9l16.02-12.36L61.9,27.9l16.02-12.36L93.95,27.9l16.02-12.36
		L126,27.9l16.02-12.36l16.02,12.36l16.02-12.36L190.1,27.9l16.02-12.36l16.02,12.36l16.02-12.36v144.22h-50.36v6.87V186.76z"/>
	<rect x="29.4" y="96.57" fill="#AB2F2F" width="96.6" height="96.6"/>
	<rect x="29.4" y="54.45" fill="#EB5959" width="96.6" height="25.18"/>
	<rect x="126" y="54.45" fill="#AB2F2F" width="96.6" height="25.18"/>
	<rect x="141.11" y="99.78" fill="#CECCCC" width="85.61" height="8.7"/>
	<rect x="141.11" y="120.38" fill="#CECCCC" width="85.61" height="8.7"/>
	<rect x="141.11" y="141.44" fill="#CECCCC" width="85.61" height="8.7"/>
	<rect x="141.11" y="162.04" fill="#CECCCC" width="51.28" height="8.7"/>
	<rect x="141.11" y="182.64" fill="#CECCCC" width="51.28" height="8.7"/>
	<polygon fill="#9A9A9A" points="238.17,159.29 187.81,209.66 187.81,186.76 187.81,166.16 187.81,159.29 	"/>
	<path fill="#FFFFFF" d="M104.94,137.78h-0.46c-1.37,0-2.75,0.92-3.66,1.83c-0.92,1.37-2.29,1.83-3.66,1.83
		c-0.46-3.2-1.83-6.41-3.66-8.7l1.83-1.83c0.46-0.46,1.37-0.92,2.29-0.92c0.92,0,1.83-0.46,2.29-0.92l0.92-0.92l0,0
		c0-1.83-0.92-3.66-1.83-4.58c-1.37-1.37-2.75-1.83-4.58-1.83l0,0l-0.92,0.92c-0.46,0.46-0.92,1.37-0.92,2.29
		c0,0.92-0.46,1.83-0.92,2.29l-1.83,1.83c-2.29-1.83-5.49-3.2-8.7-3.66c0-1.37,0.92-2.75,1.83-3.66c1.37-0.92,1.83-2.29,1.83-3.66
		v-0.46c-1.83-1.37-4.12-1.83-6.41-1.83h-0.92c-2.29,0-4.58,0.46-6.41,1.83v0.46c0,1.37,0.92,2.75,1.83,3.66
		c1.37,0.92,1.83,2.29,1.83,3.66c-3.2,0.46-6.41,1.83-8.7,3.66l-1.83-1.83c-0.92-0.46-0.92-1.37-0.92-2.29
		c0-0.92-0.46-1.83-0.92-2.29l-0.92-0.92l0,0c-1.83,0-3.66,0.92-4.58,1.83c-1.37,1.37-1.83,2.75-1.83,4.58l0,0l0.92,0.92
		c0.46,0.46,1.37,0.92,2.29,0.92c0.92,0,1.83,0.46,2.29,0.92l1.83,1.83c-1.83,2.29-3.2,5.49-3.66,8.7c-1.37,0-2.75-0.92-3.66-1.83
		c-0.92-1.37-2.29-1.83-3.66-1.83h-0.46c-1.37,1.83-1.83,4.12-1.83,6.41v0.92c0,2.29,0.46,4.58,1.83,6.41h0.46
		c1.37,0,2.75-0.92,3.66-1.83c0.92-1.37,2.29-1.83,3.66-1.83c0.46,3.2,1.83,6.41,3.66,8.7l-2.29,1.83
		c-0.46,0.46-1.37,0.92-2.29,0.92s-1.83,0.46-2.29,0.92l-0.92,0.92l0,0c0,1.83,0.92,3.66,1.83,4.58c1.37,1.37,2.75,1.83,4.58,1.83
		l0,0l0.92-0.92c0.46-0.46,0.92-1.37,0.92-2.29c0-0.92,0.46-1.83,0.92-2.29l1.83-1.83c2.29,1.83,5.49,3.2,8.7,3.66
		c0,1.37-0.92,2.75-1.83,3.66c-1.37,0.92-1.83,2.29-1.83,3.66v0.46c1.83,1.37,4.12,1.83,6.41,1.83h0.92c2.29,0,4.58-0.46,6.41-1.83
		v-0.46c0-1.37-0.92-2.75-1.83-3.66c-1.37-0.92-1.83-2.29-1.83-3.66c3.2-0.46,6.41-1.83,8.7-3.66l1.83,1.83
		c0.46,0.46,0.92,1.37,0.92,2.29c0,0.92,0.46,1.83,0.92,2.29l0.92,0.92l0,0c1.83,0,3.66-0.92,4.58-1.83
		c1.37-1.37,1.83-2.75,1.83-4.58l0,0l-0.46-0.92c-0.46-0.46-1.37-0.92-2.29-0.92c-0.92,0-1.83-0.46-2.29-0.92l-1.83-1.83
		c1.83-2.29,3.2-5.49,3.66-8.7c1.37,0,2.75,0.92,3.66,1.83c0.92,1.37,2.29,1.83,3.66,1.83h0.46c1.37-1.83,1.83-4.12,1.83-6.41v-0.92
		C106.77,141.9,105.86,140.07,104.94,137.78z"/>
</g>
</svg>
