<?xml version="1.0" encoding="utf-8"?>
<!-- Generator: Adobe Illustrator 23.0.1, SVG Export Plug-In . SVG Version: 6.00 Build 0)  -->
<svg version="1.1" id="Camada_1" xmlns="http://www.w3.org/2000/svg" xmlns:xlink="http://www.w3.org/1999/xlink" x="0px" y="0px"
	 viewBox="0 0 220 68" style="enable-background:new 0 0 220 68;" xml:space="preserve">
<style type="text/css">
	.st0{fill:#616160;}
	.st1{fill:#E7E6E6;}
	.st2{fill:#A92E2E;}
	.st3{fill:#EB5758;}
	.st4{fill:#E33B44;}
	.st5{fill:#CDCCCC;}
	.st6{fill:#9A9999;}
	.st7{fill:#FFFFFF;}
</style>
<g>
	<g>
		<g>
			<g>
				<path class="st0" d="M78.2,38.5c-2.9,0-5.3-1-7.3-3C69,33.5,68,31,68,28s1-5.5,2.9-7.4c1.9-2,4.4-3,7.3-3c3,0,5.4,1.1,7.2,3.3
					l-1.8,1.8c-1.4-1.7-3.2-2.6-5.4-2.6c-2.2,0-4,0.7-5.5,2.2c-1.4,1.5-2.2,3.4-2.2,5.8c0,2.4,0.7,4.3,2.2,5.8
					c1.5,1.5,3.3,2.2,5.5,2.2c2.3,0,4.3-1,5.9-2.9l1.8,1.8c-0.9,1.1-2.1,2-3.4,2.6C81.2,38.1,79.8,38.5,78.2,38.5z"/>
				<path class="st0" d="M87.2,31.2c0-2.1,0.6-3.9,1.9-5.2c1.3-1.4,3-2.1,5-2.1c2,0,3.6,0.7,4.9,2.1c1.3,1.4,2,3.1,2,5.2
					c0,2.1-0.7,3.9-2,5.2c-1.3,1.4-2.9,2.1-4.9,2.1c-2,0-3.6-0.7-5-2.1C87.9,35,87.2,33.3,87.2,31.2z M89.7,31.2
					c0,1.5,0.4,2.7,1.3,3.6c0.8,0.9,1.9,1.4,3.1,1.4c1.2,0,2.3-0.5,3.1-1.4c0.8-0.9,1.3-2.1,1.3-3.6c0-1.5-0.4-2.6-1.3-3.5
					c-0.9-0.9-1.9-1.4-3.1-1.4s-2.3,0.5-3.1,1.4C90.2,28.5,89.7,29.7,89.7,31.2z"/>
				<path class="st0" d="M109.6,38h-2.5l-5.4-13.7h2.7l3.9,10.6h0.1l4-10.6h2.7L109.6,38z"/>
				<path class="st0" d="M120,19.6c0,0.5-0.2,0.9-0.5,1.3c-0.3,0.4-0.8,0.5-1.3,0.5s-0.9-0.2-1.3-0.5c-0.3-0.4-0.5-0.8-0.5-1.3
					s0.2-0.9,0.5-1.3c0.3-0.4,0.8-0.5,1.3-0.5s0.9,0.2,1.3,0.5C119.8,18.6,120,19.1,120,19.6z M119.4,24.3V38h-2.5V24.3H119.4z"/>
				<path class="st0" d="M128.2,38.5c-1.8,0-3.3-0.7-4.5-2.1c-1.2-1.4-1.9-3.2-1.9-5.2s0.6-3.7,1.9-5.2c1.3-1.4,2.8-2.1,4.5-2.1
					c1,0,1.9,0.2,2.7,0.6s1.4,1,1.9,1.7h0.1l-0.1-1.9V18h2.5v20h-2.4v-1.9h-0.1c-0.4,0.7-1.1,1.3-1.9,1.7
					C130.1,38.2,129.2,38.5,128.2,38.5z M128.6,36.1c1.2,0,2.3-0.5,3-1.4c0.8-0.9,1.2-2.1,1.2-3.6c0-1.4-0.4-2.6-1.2-3.5
					c-0.8-0.9-1.8-1.4-3-1.4c-1.2,0-2.2,0.5-3,1.4c-0.8,0.9-1.2,2.1-1.2,3.5c0,1.5,0.4,2.6,1.2,3.5
					C126.4,35.6,127.4,36.1,128.6,36.1z"/>
			</g>
			<g>
				<path d="M160.4,38h-4l-7.8-13.1V38h-4V18.1h4l7.8,13.1V18.1h4V38z"/>
				<path d="M170.4,38.3c-2.1,0-3.9-0.7-5.2-2c-1.3-1.3-2-3.1-2-5.3v-0.4c0-1.5,0.3-2.8,0.8-4c0.6-1.2,1.4-2.1,2.4-2.7
					c1-0.6,2.2-0.9,3.5-0.9c2,0,3.5,0.6,4.7,1.9s1.7,3.1,1.7,5.4v1.6h-9.2c0.1,1,0.5,1.7,1.1,2.3c0.6,0.6,1.4,0.9,2.4,0.9
					c1.5,0,2.7-0.6,3.5-1.7l1.9,2.2c-0.6,0.8-1.4,1.5-2.4,2C172.7,38,171.6,38.3,170.4,38.3z M169.9,26.1c-0.8,0-1.4,0.3-1.9,0.8
					c-0.5,0.5-0.8,1.3-0.9,2.3h5.4v-0.3c0-0.9-0.3-1.6-0.7-2C171.4,26.4,170.7,26.1,169.9,26.1z"/>
				<path d="M191.1,32.6l1.9-9.4h3.7L193,38h-3.2l-2.7-9.3l-2.7,9.3h-3.2l-3.7-14.8h3.7l1.9,9.4l2.6-9.4h2.8L191.1,32.6z"/>
				<path d="M206.5,33.9c0-0.5-0.2-0.9-0.7-1.1c-0.5-0.3-1.2-0.5-2.3-0.7c-3.4-0.7-5.2-2.2-5.2-4.5c0-1.3,0.5-2.4,1.6-3.3
					s2.5-1.3,4.2-1.3c1.8,0,3.3,0.4,4.4,1.3c1.1,0.9,1.7,2,1.7,3.4h-3.9c0-0.6-0.2-1-0.5-1.4c-0.4-0.4-0.9-0.6-1.7-0.6
					c-0.7,0-1.2,0.2-1.5,0.4c-0.4,0.3-0.5,0.7-0.5,1.1c0,0.4,0.2,0.8,0.6,1.1c0.4,0.3,1.1,0.5,2.1,0.7c1,0.2,1.8,0.4,2.4,0.7
					c2,0.8,3.1,2.1,3.1,4c0,1.3-0.6,2.4-1.7,3.3c-1.1,0.8-2.6,1.3-4.4,1.3c-1.2,0-2.3-0.2-3.2-0.7c-0.9-0.4-1.7-1-2.2-1.8
					c-0.5-0.8-0.8-1.6-0.8-2.5h3.7c0,0.7,0.3,1.2,0.8,1.6c0.5,0.4,1.1,0.6,1.9,0.6c0.7,0,1.3-0.1,1.7-0.4
					C206.3,34.8,206.5,34.4,206.5,33.9z"/>
			</g>
		</g>
		<g>
			<path class="st0" d="M124.5,52.7c-0.4,0-0.9-0.1-1.2-0.3c-0.4-0.2-0.7-0.5-0.9-0.8h-0.1v0.9h-1.1v-9.1h1.1v2.9l-0.1,0.9h0.1
				c0.2-0.3,0.5-0.6,0.9-0.8c0.4-0.2,0.8-0.3,1.2-0.3c0.8,0,1.5,0.3,2,1c0.6,0.7,0.9,1.4,0.9,2.4c0,0.9-0.3,1.7-0.9,2.4
				C126,52.4,125.3,52.7,124.5,52.7z M124.4,51.6c0.5,0,1-0.2,1.4-0.6c0.4-0.4,0.6-1,0.6-1.6c0-0.7-0.2-1.2-0.6-1.6
				c-0.4-0.4-0.8-0.6-1.4-0.6c-0.6,0-1,0.2-1.4,0.6c-0.4,0.4-0.5,1-0.5,1.6c0,0.7,0.2,1.2,0.5,1.6C123.3,51.4,123.8,51.6,124.4,51.6
				z"/>
			<path class="st0" d="M133.7,46.3l-3.8,9h-1.2l1.4-3.1l-2.5-5.8h1.2l1.8,4.5h0l1.8-4.5H133.7z"/>
			<path class="st0" d="M146.7,48.6c0,0.8-0.2,1.5-0.5,1.9c-0.3,0.5-0.8,0.7-1.4,0.7c-0.6,0-1.1-0.3-1.4-0.9c-0.4,0.6-1,0.9-1.7,0.9
				c-0.7,0-1.3-0.2-1.7-0.7c-0.5-0.5-0.7-1.1-0.7-1.9c0-0.7,0.2-1.3,0.7-1.8c0.5-0.5,1-0.8,1.7-0.8c0.6,0,1.2,0.3,1.6,0.8h0.1v-0.6
				h0.9v3.2c0,0.7,0.2,1,0.7,1c0.6,0,0.9-0.6,0.9-1.8c0-1.1-0.4-2-1.1-2.8c-0.8-0.8-1.7-1.2-2.8-1.2c-1.1,0-2,0.4-2.8,1.2
				c-0.8,0.8-1.1,1.7-1.1,2.8c0,1.1,0.4,2.1,1.1,2.8c0.8,0.8,1.7,1.2,2.8,1.2c0.6,0,1.1-0.1,1.6-0.4l0.3,0.9
				c-0.6,0.3-1.2,0.4-1.9,0.4c-0.9,0-1.7-0.2-2.5-0.6c-0.7-0.4-1.3-1-1.8-1.8c-0.2-0.4-0.4-0.8-0.5-1.2c-0.1-0.4-0.2-0.8-0.2-1.3
				c0-0.4,0.1-0.8,0.2-1.3s0.3-0.8,0.5-1.2c0.2-0.4,0.5-0.7,0.8-1c0.3-0.3,0.6-0.6,1-0.8s0.8-0.4,1.2-0.5c0.4-0.1,0.8-0.2,1.3-0.2
				c0.9,0,1.7,0.2,2.4,0.6c0.7,0.4,1.3,1,1.8,1.8C146.5,46.9,146.7,47.7,146.7,48.6z M140.3,48.7c0,0.2,0,0.5,0.1,0.7
				c0.1,0.2,0.2,0.4,0.3,0.5c0.1,0.1,0.3,0.3,0.5,0.3c0.2,0.1,0.4,0.1,0.6,0.1s0.4,0,0.6-0.1c0.2-0.1,0.3-0.2,0.5-0.3
				s0.2-0.3,0.3-0.5c0.1-0.2,0.1-0.4,0.1-0.7c0-0.2,0-0.5-0.1-0.7c-0.1-0.2-0.2-0.4-0.3-0.5c-0.1-0.1-0.3-0.3-0.5-0.3
				c-0.2-0.1-0.4-0.1-0.6-0.1s-0.4,0-0.6,0.1c-0.2,0.1-0.3,0.2-0.5,0.3c-0.1,0.1-0.2,0.3-0.3,0.5C140.4,48.2,140.3,48.4,140.3,48.7z
				"/>
			<path class="st0" d="M156.6,46.3l-2,6.2h-1.2l-1.5-4.8l-1.5,4.8h-1.2l-2-6.2h1.2l1.4,4.7h0l1.5-4.7h1.2l1.5,4.7h0l1.3-4.7H156.6z
				"/>
			<path class="st0" d="M160,52.7c-0.9,0-1.6-0.3-2.2-0.9c-0.6-0.6-0.9-1.4-0.9-2.4c0-0.9,0.3-1.7,0.8-2.4c0.6-0.6,1.3-0.9,2.2-0.9
				c0.9,0,1.6,0.3,2.2,0.9c0.5,0.6,0.8,1.4,0.8,2.5l0,0.1h-4.8c0,0.6,0.2,1.1,0.6,1.5s0.8,0.6,1.4,0.6c0.7,0,1.3-0.4,1.7-1.1l1,0.5
				c-0.3,0.5-0.7,0.9-1.1,1.2C161.1,52.5,160.6,52.7,160,52.7z M158.1,48.6h3.5c0-0.4-0.2-0.8-0.5-1.1c-0.3-0.3-0.7-0.4-1.3-0.4
				c-0.4,0-0.8,0.1-1.1,0.4C158.5,47.8,158.2,48.2,158.1,48.6z"/>
			<path class="st0" d="M168.6,50.7c0,0.5-0.2,1-0.7,1.4c-0.5,0.4-1,0.6-1.8,0.6c-0.6,0-1.2-0.2-1.6-0.5c-0.5-0.3-0.8-0.8-1-1.3
				l1-0.4c0.2,0.4,0.4,0.7,0.7,0.9c0.3,0.2,0.6,0.3,0.9,0.3c0.4,0,0.7-0.1,0.9-0.2c0.2-0.2,0.4-0.3,0.4-0.6c0-0.4-0.3-0.7-0.9-0.9
				l-1-0.3c-1.2-0.3-1.8-0.9-1.8-1.8c0-0.6,0.2-1,0.7-1.4c0.5-0.3,1-0.5,1.7-0.5c0.5,0,1,0.1,1.5,0.4c0.4,0.3,0.7,0.6,0.9,1.1
				l-1,0.4c-0.1-0.3-0.3-0.5-0.6-0.6c-0.3-0.1-0.6-0.2-0.9-0.2c-0.3,0-0.6,0.1-0.8,0.2s-0.4,0.3-0.4,0.6c0,0.4,0.3,0.6,1,0.8
				l0.9,0.2C168,49.2,168.6,49.8,168.6,50.7z"/>
			<path class="st0" d="M170.8,43.4v9.1h-1.1v-9.1H170.8z"/>
			<path class="st0" d="M174.8,52.7c-0.9,0-1.6-0.3-2.2-0.9c-0.6-0.6-0.9-1.4-0.9-2.4c0-0.9,0.3-1.7,0.8-2.4
				c0.6-0.6,1.3-0.9,2.2-0.9c0.9,0,1.6,0.3,2.2,0.9c0.5,0.6,0.8,1.4,0.8,2.5l0,0.1h-4.8c0,0.6,0.2,1.1,0.6,1.5
				c0.4,0.4,0.8,0.6,1.4,0.6c0.7,0,1.3-0.4,1.7-1.1l1,0.5c-0.3,0.5-0.7,0.9-1.1,1.2C176,52.5,175.5,52.7,174.8,52.7z M173,48.6h3.5
				c0-0.4-0.2-0.8-0.5-1.1c-0.3-0.3-0.7-0.4-1.3-0.4c-0.4,0-0.8,0.1-1.1,0.4S173.1,48.2,173,48.6z"/>
			<path class="st0" d="M184.1,46.3l-3.8,9h-1.2l1.4-3.1l-2.5-5.8h1.2l1.8,4.5h0l1.8-4.5H184.1z"/>
			<path class="st0" d="M187.4,52.7c-0.9,0-1.7-0.3-2.3-0.9c-0.6-0.6-0.9-1.4-0.9-2.4c0-1,0.3-1.7,0.9-2.4c0.6-0.6,1.3-0.9,2.3-0.9
				c0.6,0,1.2,0.2,1.6,0.5s0.8,0.8,1,1.3l-1,0.4c-0.3-0.8-0.9-1.2-1.7-1.2c-0.5,0-1,0.2-1.4,0.6c-0.4,0.4-0.6,1-0.6,1.6
				c0,0.6,0.2,1.2,0.6,1.6c0.4,0.4,0.8,0.6,1.4,0.6c0.8,0,1.4-0.4,1.8-1.2l1,0.4c-0.2,0.6-0.6,1-1.1,1.3
				C188.6,52.5,188,52.7,187.4,52.7z"/>
			<path class="st0" d="M192.2,43.4v9.1h-1.1v-9.1H192.2z"/>
			<path class="st0" d="M198.4,52.5h-4.9v-1l3.5-4.1h-3.4v-1.1h4.8v1l-3.5,4.1h3.5V52.5z"/>
			<path class="st0" d="M199.5,46.3h1.1v0.9h0.1c0.2-0.3,0.4-0.6,0.8-0.8s0.7-0.3,1.1-0.3c0.7,0,1.3,0.2,1.7,0.7
				c0.4,0.4,0.6,1.1,0.6,1.9v3.9h-1.1v-3.8c0-1-0.5-1.5-1.5-1.5c-0.5,0-0.8,0.2-1.1,0.6c-0.3,0.4-0.5,0.8-0.5,1.4v3.4h-1.1
				L199.5,46.3L199.5,46.3z"/>
			<path class="st0" d="M210.8,50.7c0,0.5-0.2,1-0.7,1.4c-0.5,0.4-1,0.6-1.8,0.6c-0.6,0-1.2-0.2-1.6-0.5c-0.5-0.3-0.8-0.8-1-1.3
				l1-0.4c0.2,0.4,0.4,0.7,0.7,0.9c0.3,0.2,0.6,0.3,0.9,0.3c0.4,0,0.7-0.1,0.9-0.2s0.4-0.3,0.4-0.6c0-0.4-0.3-0.7-0.9-0.9l-1-0.3
				c-1.2-0.3-1.8-0.9-1.8-1.8c0-0.6,0.2-1,0.7-1.4c0.5-0.3,1-0.5,1.7-0.5c0.5,0,1,0.1,1.5,0.4c0.4,0.3,0.7,0.6,0.9,1.1l-1,0.4
				c-0.1-0.3-0.3-0.5-0.6-0.6c-0.3-0.1-0.6-0.2-0.9-0.2c-0.3,0-0.6,0.1-0.8,0.2c-0.2,0.2-0.4,0.3-0.4,0.6c0,0.4,0.3,0.6,1,0.8
				l0.9,0.2C210.2,49.2,210.8,49.8,210.8,50.7z"/>
		</g>
	</g>
	<g>
		<path class="st1" d="M47.2,50.2v5H9.2V12.8l3.5,2.7l3.5-2.7l3.5,2.7l3.5-2.7l3.5,2.7l3.5-2.7l3.5,2.7l3.5-2.7l3.5,2.7l3.5-2.7
			l3.5,2.7l3.5-2.7l3.5,2.7l3.5-2.7v31.5h-11v1.5V50.2z"/>
		<rect x="12.6" y="30.5" class="st2" width="21.1" height="21.1"/>
		<rect x="12.6" y="21.3" class="st3" width="21.1" height="5.5"/>
		<rect x="33.7" y="21.3" class="st4" width="21.1" height="5.5"/>
		<rect x="37" y="31.2" class="st5" width="18.7" height="1.9"/>
		<rect x="37" y="35.7" class="st5" width="18.7" height="1.9"/>
		<rect x="37" y="40.3" class="st5" width="18.7" height="1.9"/>
		<rect x="37" y="44.8" class="st5" width="11.2" height="1.9"/>
		<rect x="37" y="49.3" class="st5" width="11.2" height="1.9"/>
		<polygon class="st6" points="58.2,44.2 47.2,55.2 47.2,50.2 47.2,45.7 47.2,44.2 		"/>
		<path class="st7" d="M29.1,39.5h-0.1c-0.3,0-0.6,0.2-0.8,0.4c-0.2,0.3-0.5,0.4-0.8,0.4c-0.1-0.7-0.4-1.4-0.8-1.9l0.4-0.4
			c0.1-0.1,0.3-0.2,0.5-0.2c0.2,0,0.4-0.1,0.5-0.2l0.2-0.2v0c0-0.4-0.2-0.8-0.4-1c-0.3-0.3-0.6-0.4-1-0.4h0l-0.2,0.2
			c-0.1,0.1-0.2,0.3-0.2,0.5s-0.1,0.4-0.2,0.5l-0.4,0.4c-0.5-0.4-1.2-0.7-1.9-0.8c0-0.3,0.2-0.6,0.4-0.8c0.3-0.2,0.4-0.5,0.4-0.8
			v-0.1c-0.4-0.3-0.9-0.4-1.4-0.4h-0.2c-0.5,0-1,0.1-1.4,0.4v0.1c0,0.3,0.2,0.6,0.4,0.8c0.3,0.2,0.4,0.5,0.4,0.8
			c-0.7,0.1-1.4,0.4-1.9,0.8l-0.4-0.4C20,37.1,20,36.9,20,36.7s-0.1-0.4-0.2-0.5l-0.2-0.2h0c-0.4,0-0.8,0.2-1,0.4
			c-0.3,0.3-0.4,0.6-0.4,1v0l0.2,0.2c0.1,0.1,0.3,0.2,0.5,0.2s0.4,0.1,0.5,0.2l0.4,0.4c-0.4,0.5-0.7,1.2-0.8,1.9
			c-0.3,0-0.6-0.2-0.8-0.4c-0.2-0.3-0.5-0.4-0.8-0.4h-0.1c-0.3,0.4-0.4,0.9-0.4,1.4v0.2c0,0.5,0.1,1,0.4,1.4h0.1
			c0.3,0,0.6-0.2,0.8-0.4c0.2-0.3,0.5-0.4,0.8-0.4c0.1,0.7,0.4,1.4,0.8,1.9L19.3,44c-0.1,0.1-0.3,0.2-0.5,0.2s-0.4,0.1-0.5,0.2
			l-0.2,0.2v0c0,0.4,0.2,0.8,0.4,1c0.3,0.3,0.6,0.4,1,0.4h0l0.2-0.2c0.1-0.1,0.2-0.3,0.2-0.5s0.1-0.4,0.2-0.5l0.4-0.4
			c0.5,0.4,1.2,0.7,1.9,0.8c0,0.3-0.2,0.6-0.4,0.8c-0.3,0.2-0.4,0.5-0.4,0.8v0.1c0.4,0.3,0.9,0.4,1.4,0.4h0.2c0.5,0,1-0.1,1.4-0.4
			v-0.1c0-0.3-0.2-0.6-0.4-0.8c-0.3-0.2-0.4-0.5-0.4-0.8c0.7-0.1,1.4-0.4,1.9-0.8l0.4,0.4c0.1,0.1,0.2,0.3,0.2,0.5s0.1,0.4,0.2,0.5
			l0.2,0.2h0c0.4,0,0.8-0.2,1-0.4c0.3-0.3,0.4-0.6,0.4-1v0L28,44.4c-0.1-0.1-0.3-0.2-0.5-0.2s-0.4-0.1-0.5-0.2l-0.4-0.4
			c0.4-0.5,0.7-1.2,0.8-1.9c0.3,0,0.6,0.2,0.8,0.4c0.2,0.3,0.5,0.4,0.8,0.4h0.1c0.3-0.4,0.4-0.9,0.4-1.4v-0.2
			C29.5,40.4,29.3,40,29.1,39.5z"/>
	</g>
</g>
</svg>
