<?xml version="1.0" encoding="utf-8"?>
<!-- Generator: Adobe Illustrator 23.0.1, SVG Export Plug-In . SVG Version: 6.00 Build 0)  -->
<svg version="1.1" id="Camada_1" xmlns="http://www.w3.org/2000/svg" xmlns:xlink="http://www.w3.org/1999/xlink" x="0px" y="0px"
	 viewBox="0 0 458.81 125.79" style="enable-background:new 0 0 458.81 125.79;" xml:space="preserve">
<style type="text/css">
	.st0{fill:#616160;}
	.st1{fill:#E7E6E6;}
	.st2{fill:#A92E2E;}
	.st3{fill:#EB5758;}
	.st4{fill:#E33B44;}
	.st5{fill:#CDCCCC;}
	.st6{fill:#9A9999;}
	.st7{fill:#FFFFFF;}
</style>
<g>
	<g>
		<g>
			<g>
				<path class="st0" d="M162.08,72.32c-6.15,0-11.3-2.11-15.44-6.34c-4.1-4.23-6.15-9.5-6.15-15.82c0-6.32,2.05-11.57,6.15-15.76
					c4.1-4.27,9.25-6.4,15.44-6.4c6.27,0,11.36,2.31,15.27,6.93l-3.83,3.79c-2.98-3.67-6.79-5.51-11.44-5.51
					c-4.61,0-8.46,1.58-11.55,4.74c-3.06,3.12-4.59,7.19-4.59,12.2c0,5.02,1.53,9.08,4.59,12.2c3.1,3.16,6.95,4.74,11.55,4.74
					c4.84,0,9.04-2.07,12.6-6.22l3.89,3.85c-1.97,2.41-4.39,4.28-7.26,5.6C168.45,71.66,165.37,72.32,162.08,72.32z"/>
				<path class="st0" d="M181.13,56.86c0-4.46,1.37-8.16,4.12-11.08c2.79-2.92,6.29-4.38,10.51-4.38c4.22,0,7.7,1.46,10.45,4.38
					c2.79,2.92,4.18,6.62,4.18,11.08c0,4.5-1.39,8.2-4.18,11.08c-2.75,2.92-6.23,4.38-10.45,4.38c-4.22,0-7.72-1.46-10.51-4.38
					C182.5,65.01,181.13,61.32,181.13,56.86z M186.47,56.86c0,3.12,0.89,5.65,2.67,7.58c1.78,1.94,3.99,2.9,6.62,2.9
					c2.63,0,4.84-0.97,6.62-2.9c1.78-1.94,2.67-4.46,2.67-7.58c0-3.08-0.89-5.59-2.67-7.52c-1.82-1.97-4.03-2.96-6.62-2.96
					c-2.59,0-4.8,0.99-6.62,2.96C187.36,51.27,186.47,53.78,186.47,56.86z"/>
				<path class="st0" d="M228.5,71.37h-5.34l-11.5-29.03h5.81l8.36,22.51h0.12l8.48-22.51h5.69L228.5,71.37z"/>
				<path class="st0" d="M250.51,32.33c0,1.07-0.37,1.98-1.1,2.73c-0.74,0.75-1.63,1.13-2.67,1.13s-1.94-0.38-2.67-1.13
					c-0.74-0.75-1.1-1.66-1.1-2.73c0-1.07,0.37-1.97,1.1-2.73c0.73-0.75,1.63-1.13,2.67-1.13s1.94,0.38,2.67,1.13
					C250.14,30.35,250.51,31.26,250.51,32.33z M249.41,42.34v29.03h-5.34V42.34H249.41z"/>
				<path class="st0" d="M267.99,72.32c-3.72,0-6.91-1.5-9.58-4.5c-2.63-3.04-3.95-6.69-3.95-10.96s1.32-7.92,3.95-10.96
					c2.67-3,5.86-4.5,9.58-4.5c2.09,0,4,0.45,5.72,1.36c1.72,0.91,3.05,2.11,3.98,3.61h0.23l-0.23-4.03V28.95h5.34v42.42h-5.11
					v-4.03h-0.23c-0.93,1.5-2.26,2.71-3.98,3.61C271.98,71.87,270.08,72.32,267.99,72.32z M268.86,67.34c2.63,0,4.78-0.97,6.44-2.9
					c1.74-1.94,2.61-4.46,2.61-7.58c0-3.04-0.87-5.55-2.61-7.52c-1.7-1.97-3.85-2.96-6.44-2.96c-2.55,0-4.7,0.99-6.44,2.96
					c-1.74,1.98-2.61,4.48-2.61,7.52c0,3.08,0.87,5.59,2.61,7.52C264.15,66.36,266.3,67.34,268.86,67.34z"/>
			</g>
			<g>
				<path d="M336.3,71.37h-8.5l-16.56-27.71v27.71h-8.5V29.25h8.5l16.58,27.77V29.25h8.48V71.37z"/>
				<path d="M357.31,71.95c-4.5,0-8.16-1.41-10.99-4.22c-2.83-2.82-4.24-6.57-4.24-11.25v-0.81c0-3.14,0.6-5.95,1.79-8.43
					c1.19-2.48,2.88-4.39,5.06-5.73c2.18-1.34,4.67-2.01,7.47-2.01c4.2,0,7.5,1.35,9.91,4.05c2.41,2.7,3.61,6.53,3.61,11.48v3.41
					h-19.53c0.27,2.04,1.06,3.68,2.4,4.92c1.33,1.23,3.02,1.85,5.06,1.85c3.16,0,5.62-1.17,7.4-3.5l4.03,4.6
					c-1.23,1.77-2.89,3.16-4.99,4.15S359.86,71.95,357.31,71.95z M356.37,46.23c-1.63,0-2.94,0.56-3.96,1.69
					c-1.01,1.12-1.66,2.73-1.94,4.82h11.4v-0.67c-0.04-1.86-0.53-3.3-1.47-4.31S358.11,46.23,356.37,46.23z"/>
				<path d="M401.25,60l4.03-19.93h7.91l-7.83,31.3h-6.86l-5.81-19.7l-5.81,19.7h-6.83l-7.82-31.3h7.91l4,19.9l5.61-19.9h5.92
					L401.25,60z"/>
				<path d="M433.85,62.72c0-1.02-0.5-1.83-1.49-2.42s-2.58-1.11-4.78-1.58c-7.29-1.56-10.94-4.73-10.94-9.49
					c0-2.78,1.13-5.1,3.39-6.96c2.26-1.86,5.21-2.79,8.86-2.79c3.89,0,7.01,0.94,9.34,2.81c2.33,1.87,3.5,4.3,3.5,7.29h-8.19
					c0-1.2-0.38-2.18-1.13-2.97c-0.76-0.78-1.94-1.17-3.54-1.17c-1.38,0-2.45,0.32-3.2,0.95s-1.13,1.45-1.13,2.43
					c0,0.93,0.43,1.67,1.29,2.24c0.86,0.57,2.31,1.06,4.35,1.48s3.76,0.88,5.16,1.4c4.33,1.62,6.49,4.43,6.49,8.42
					c0,2.85-1.2,5.16-3.6,6.93c-2.4,1.76-5.5,2.65-9.3,2.65c-2.57,0-4.85-0.47-6.85-1.4c-1.99-0.94-3.56-2.22-4.69-3.85
					c-1.13-1.63-1.7-3.39-1.7-5.28h7.77c0.08,1.49,0.61,2.62,1.62,3.41c1,0.79,2.34,1.19,4.03,1.19c1.57,0,2.75-0.3,3.56-0.91
					C433.45,64.5,433.85,63.71,433.85,62.72z"/>
			</g>
		</g>
		<g>
			<path class="st0" d="M260.23,102.47c-0.95,0-1.82-0.21-2.6-0.62s-1.38-0.96-1.81-1.64h-0.11v1.83h-2.32V82.77h2.43v6.08
				l-0.11,1.83h0.11c0.42-0.68,1.02-1.23,1.81-1.64c0.78-0.41,1.65-0.62,2.6-0.62c1.7,0,3.15,0.68,4.32,2.04
				c1.21,1.38,1.82,3.04,1.82,4.98c0,1.96-0.61,3.62-1.82,4.98C263.38,101.79,261.93,102.47,260.23,102.47z M259.83,100.21
				c1.16,0,2.14-0.45,2.93-1.34c0.79-0.88,1.19-2.02,1.19-3.42c0-1.38-0.4-2.52-1.19-3.42c-0.79-0.9-1.77-1.35-2.93-1.35
				c-1.18,0-2.16,0.45-2.95,1.35c-0.77,0.9-1.16,2.04-1.16,3.42c0,1.4,0.39,2.55,1.16,3.44
				C257.67,99.77,258.66,100.21,259.83,100.21z"/>
			<path class="st0" d="M279.61,88.85l-8.1,19h-2.51l3.01-6.65l-5.33-12.35h2.64l3.85,9.47h0.05l3.74-9.47H279.61z"/>
			<path class="st0" d="M307.25,93.86c0,1.72-0.35,3.08-1.05,4.09s-1.67,1.51-2.9,1.51c-1.32,0-2.3-0.65-2.95-1.96
				c-0.86,1.31-2.09,1.96-3.69,1.96c-1.48,0-2.7-0.52-3.67-1.56s-1.45-2.35-1.45-3.93c0-1.56,0.48-2.86,1.45-3.9
				c0.98-1.06,2.17-1.59,3.56-1.59c1.35,0,2.48,0.53,3.38,1.59h0.11v-1.21h1.9v6.7c0,1.43,0.52,2.15,1.56,2.15
				c1.25,0,1.87-1.28,1.87-3.85c0-2.33-0.81-4.32-2.43-5.97s-3.59-2.48-5.91-2.48c-2.32,0-4.29,0.83-5.91,2.48
				c-1.62,1.65-2.43,3.64-2.43,5.97c0,2.35,0.81,4.35,2.43,6c1.6,1.63,3.57,2.45,5.91,2.45c1.27,0,2.38-0.25,3.35-0.75l0.74,1.83
				c-1.27,0.57-2.63,0.86-4.09,0.86c-1.88,0-3.62-0.46-5.22-1.37c-1.56-0.92-2.81-2.18-3.74-3.79c-0.46-0.83-0.8-1.68-1.03-2.56
				c-0.23-0.88-0.34-1.78-0.34-2.69c0-0.9,0.11-1.78,0.33-2.65s0.56-1.71,1.02-2.52c0.46-0.81,1.01-1.53,1.65-2.18
				c0.64-0.65,1.35-1.19,2.14-1.63s1.61-0.78,2.49-1.02c0.88-0.24,1.78-0.36,2.72-0.36c1.86,0,3.58,0.46,5.14,1.37
				c1.58,0.92,2.82,2.18,3.72,3.79C306.79,90.23,307.25,91.97,307.25,93.86z M293.64,93.97c0,0.5,0.08,0.96,0.24,1.39
				c0.16,0.42,0.38,0.79,0.67,1.09s0.63,0.54,1.02,0.71c0.39,0.17,0.81,0.26,1.27,0.26s0.88-0.08,1.27-0.26
				c0.39-0.17,0.73-0.4,1.02-0.7s0.51-0.66,0.67-1.08c0.16-0.42,0.24-0.89,0.24-1.41c0-0.5-0.08-0.97-0.24-1.4s-0.38-0.79-0.67-1.09
				s-0.63-0.53-1.02-0.7s-0.81-0.26-1.27-0.26s-0.88,0.08-1.27,0.26s-0.73,0.41-1.02,0.71c-0.29,0.31-0.51,0.67-0.67,1.09
				S293.64,93.46,293.64,93.97z"/>
			<path class="st0" d="M328.18,88.85l-4.17,13.18h-2.48l-3.22-10.12l-3.19,10.12h-2.45l-4.17-13.18h2.53l2.87,9.96h0.03l3.19-9.96
				h2.5l3.19,9.96h0.03l2.85-9.96H328.18z"/>
			<path class="st0" d="M335.3,102.47c-1.9,0-3.46-0.66-4.69-1.99c-1.23-1.33-1.85-3-1.85-5.03c0-2.01,0.6-3.68,1.79-5.02
				c1.19-1.34,2.72-2,4.59-2c1.92,0,3.44,0.63,4.58,1.9c1.13,1.26,1.7,3.04,1.7,5.31l-0.03,0.27h-10.15
				c0.03,1.29,0.46,2.33,1.27,3.12c0.81,0.79,1.78,1.18,2.9,1.18c1.55,0,2.76-0.79,3.64-2.37l2.16,1.08
				c-0.58,1.11-1.38,1.98-2.41,2.61C337.77,102.15,336.6,102.47,335.3,102.47z M331.43,93.86h7.41c-0.07-0.92-0.44-1.67-1.09-2.27
				c-0.66-0.6-1.54-0.9-2.65-0.9c-0.91,0-1.7,0.29-2.36,0.86S331.64,92.89,331.43,93.86z"/>
			<path class="st0" d="M353.66,98.38c0,1.15-0.49,2.12-1.48,2.91c-0.98,0.79-2.22,1.18-3.72,1.18c-1.3,0-2.44-0.35-3.43-1.04
				c-0.98-0.69-1.69-1.6-2.11-2.73l2.16-0.94c0.32,0.79,0.78,1.4,1.38,1.84c0.61,0.44,1.27,0.66,1.99,0.66
				c0.77,0,1.42-0.17,1.94-0.51c0.52-0.34,0.78-0.74,0.78-1.21c0-0.84-0.63-1.46-1.9-1.86l-2.21-0.57
				c-2.51-0.65-3.77-1.88-3.77-3.71c0-1.2,0.48-2.17,1.44-2.89s2.18-1.09,3.68-1.09c1.14,0,2.18,0.28,3.1,0.83
				c0.92,0.56,1.57,1.3,1.94,2.23l-2.16,0.92c-0.25-0.56-0.65-0.99-1.2-1.31c-0.55-0.31-1.17-0.47-1.86-0.47
				c-0.63,0-1.2,0.16-1.7,0.48c-0.5,0.32-0.75,0.72-0.75,1.18c0,0.75,0.69,1.29,2.08,1.61l1.95,0.51
				C352.37,95.07,353.66,96.39,353.66,98.38z"/>
			<path class="st0" d="M358.19,82.77v19.27h-2.43V82.77H358.19z"/>
			<path class="st0" d="M366.81,102.47c-1.9,0-3.46-0.66-4.69-1.99c-1.23-1.33-1.85-3-1.85-5.03c0-2.01,0.6-3.68,1.79-5.02
				c1.19-1.34,2.72-2,4.59-2c1.92,0,3.44,0.63,4.58,1.9c1.13,1.26,1.7,3.04,1.7,5.31l-0.03,0.27h-10.15
				c0.03,1.29,0.46,2.33,1.27,3.12c0.81,0.79,1.78,1.18,2.9,1.18c1.55,0,2.76-0.79,3.64-2.37l2.16,1.08
				c-0.58,1.11-1.38,1.98-2.41,2.61C369.28,102.15,368.12,102.47,366.81,102.47z M362.94,93.86h7.41c-0.07-0.92-0.43-1.67-1.09-2.27
				c-0.66-0.6-1.54-0.9-2.65-0.9c-0.91,0-1.7,0.29-2.36,0.86S363.15,92.89,362.94,93.86z"/>
			<path class="st0" d="M386.43,88.85l-8.1,19h-2.5l3.01-6.65l-5.33-12.35h2.64l3.85,9.47h0.05l3.74-9.47H386.43z"/>
			<path class="st0" d="M393.4,102.47c-1.92,0-3.51-0.66-4.77-1.99c-1.25-1.36-1.87-3.04-1.87-5.03c0-2.03,0.62-3.7,1.87-5.03
				c1.27-1.33,2.86-1.99,4.77-1.99c1.32,0,2.47,0.34,3.45,1.01s1.72,1.6,2.21,2.79l-2.21,0.94c-0.69-1.65-1.89-2.48-3.61-2.48
				c-1.11,0-2.07,0.46-2.88,1.37c-0.79,0.91-1.19,2.04-1.19,3.39c0,1.35,0.4,2.48,1.19,3.39c0.81,0.92,1.77,1.37,2.88,1.37
				c1.78,0,3.02-0.82,3.74-2.48l2.16,0.94c-0.47,1.18-1.22,2.11-2.23,2.79C395.9,102.13,394.73,102.47,393.4,102.47z"/>
			<path class="st0" d="M403.68,82.77v19.27h-2.43V82.77H403.68z"/>
			<path class="st0" d="M416.71,102.04h-10.44v-2.15l7.36-8.77h-7.15v-2.26h10.13v2.15l-7.36,8.77h7.46V102.04z"/>
			<path class="st0" d="M419.03,88.85h2.32v1.83h0.11c0.37-0.65,0.94-1.18,1.7-1.61s1.56-0.65,2.39-0.65c1.58,0,2.8,0.46,3.65,1.39
				c0.85,0.92,1.28,2.24,1.28,3.94v8.29h-2.43v-8.13c-0.05-2.15-1.12-3.23-3.19-3.23c-0.97,0-1.78,0.4-2.43,1.2
				c-0.65,0.8-0.98,1.75-0.98,2.87v7.29h-2.43V88.85z"/>
			<path class="st0" d="M443.08,98.38c0,1.15-0.49,2.12-1.48,2.91c-0.98,0.79-2.22,1.18-3.72,1.18c-1.3,0-2.44-0.35-3.43-1.04
				s-1.69-1.6-2.11-2.73l2.16-0.94c0.32,0.79,0.78,1.4,1.38,1.84c0.61,0.44,1.27,0.66,1.99,0.66c0.77,0,1.42-0.17,1.94-0.51
				s0.78-0.74,0.78-1.21c0-0.84-0.63-1.46-1.9-1.86l-2.22-0.57c-2.51-0.65-3.77-1.88-3.77-3.71c0-1.2,0.48-2.17,1.44-2.89
				c0.96-0.73,2.18-1.09,3.68-1.09c1.14,0,2.17,0.28,3.1,0.83c0.92,0.56,1.57,1.3,1.94,2.23l-2.16,0.92
				c-0.25-0.56-0.65-0.99-1.2-1.31c-0.55-0.31-1.17-0.47-1.86-0.47c-0.63,0-1.2,0.16-1.7,0.48c-0.5,0.32-0.75,0.72-0.75,1.18
				c0,0.75,0.69,1.29,2.08,1.61l1.95,0.51C441.79,95.07,443.08,96.39,443.08,98.38z"/>
		</g>
	</g>
	<g>
		<path class="st1" d="M96.43,97.31v10.54h-80.7V17.94l7.42,5.73l7.42-5.73L38,23.66l7.42-5.73l7.42,5.73l7.42-5.73l7.43,5.73
			l7.42-5.73l7.42,5.73l7.43-5.73l7.42,5.73l7.42-5.73l7.43,5.73l7.43-5.73V84.6H96.43v3.11V97.31z"/>
		<rect x="22.98" y="55.45" class="st2" width="44.67" height="44.67"/>
		<rect x="22.98" y="36.03" class="st3" width="44.72" height="11.6"/>
		<rect x="67.7" y="36.03" class="st4" width="44.72" height="11.6"/>
		<rect x="74.7" y="56.95" class="st5" width="39.71" height="3.97"/>
		<rect x="74.7" y="66.55" class="st5" width="39.71" height="3.97"/>
		<rect x="74.7" y="76.14" class="st5" width="39.71" height="3.97"/>
		<rect x="74.7" y="85.73" class="st5" width="23.71" height="3.97"/>
		<rect x="74.7" y="95.33" class="st5" width="23.71" height="3.97"/>
		<polygon class="st6" points="119.68,84.6 96.43,107.85 96.43,97.31 96.43,87.72 96.43,84.6 		"/>
		<path class="st7" d="M57.87,74.65h-0.22c-0.71,0-1.37,0.33-1.79,0.9c-0.4,0.53-1.01,0.86-1.67,0.89c-0.23-1.5-0.82-2.87-1.69-4.03
			c0,0,0.87-0.87,0.87-0.87c0.3-0.3,0.72-0.48,1.15-0.48s0.84-0.17,1.15-0.48l0.42-0.42v-0.08c0-0.81-0.32-1.59-0.9-2.16
			c-0.57-0.57-1.35-0.9-2.16-0.9h-0.08l-0.42,0.42c-0.3,0.3-0.48,0.72-0.48,1.15s-0.17,0.84-0.47,1.15l-0.87,0.87
			c-1.16-0.87-2.53-1.47-4.03-1.69c0.04-0.66,0.36-1.27,0.89-1.67c0.56-0.42,0.9-1.09,0.9-1.79v-0.22c-0.88-0.58-1.91-0.9-2.96-0.9
			h-0.35c-1.05,0-2.08,0.31-2.96,0.9v0.22c0,0.71,0.33,1.37,0.9,1.79c0.53,0.4,0.86,1.01,0.89,1.67c-1.5,0.23-2.87,0.82-4.03,1.69
			l-0.87-0.87c-0.3-0.3-0.48-0.72-0.48-1.15s-0.17-0.84-0.48-1.15l-0.42-0.42h-0.08c-0.81,0-1.59,0.32-2.16,0.9
			c-0.57,0.57-0.9,1.35-0.9,2.16v0.08l0.42,0.42c0.3,0.3,0.72,0.48,1.15,0.48s0.84,0.17,1.15,0.48l0.87,0.87
			c-0.87,1.16-1.47,2.53-1.69,4.03c-0.66-0.04-1.27-0.36-1.67-0.89c-0.42-0.56-1.09-0.9-1.79-0.9h-0.22
			c-0.58,0.88-0.9,1.91-0.9,2.96v0.35c0,1.05,0.31,2.08,0.9,2.96h0.22c0.71,0,1.37-0.33,1.79-0.9c0.4-0.53,1.01-0.86,1.67-0.89
			c0.23,1.5,0.82,2.87,1.69,4.03c0,0-0.87,0.87-0.87,0.87c-0.3,0.3-0.72,0.48-1.15,0.48s-0.84,0.17-1.15,0.48l-0.42,0.42v0.08
			c0,0.81,0.32,1.59,0.9,2.16c0.57,0.57,1.35,0.9,2.16,0.9h0.08l0.42-0.42c0.3-0.3,0.48-0.72,0.48-1.15s0.17-0.84,0.48-1.15
			l0.87-0.87c1.16,0.87,2.53,1.47,4.03,1.69c-0.04,0.66-0.36,1.27-0.89,1.67c-0.56,0.42-0.9,1.09-0.9,1.79v0.22
			c0.88,0.58,1.91,0.9,2.96,0.9h0.35c1.05,0,2.08-0.31,2.96-0.9v-0.22c0-0.71-0.33-1.37-0.9-1.79c-0.53-0.4-0.86-1.01-0.89-1.67
			c1.5-0.23,2.87-0.82,4.03-1.69l0.87,0.87c0.3,0.3,0.48,0.72,0.48,1.15s0.17,0.84,0.48,1.15l0.42,0.42h0.08
			c0.81,0,1.59-0.32,2.16-0.9c0.57-0.57,0.9-1.35,0.9-2.16V85.4l-0.42-0.42c-0.3-0.3-0.72-0.48-1.15-0.48s-0.84-0.17-1.15-0.47
			l-0.87-0.87c0.87-1.16,1.47-2.53,1.69-4.03c0.66,0.04,1.27,0.36,1.67,0.89c0.42,0.56,1.09,0.9,1.79,0.9h0.22
			c0.58-0.88,0.9-1.91,0.9-2.96v-0.35C58.76,76.55,58.45,75.52,57.87,74.65z"/>
	</g>
</g>
</svg>
